<svg width="224" height="352" xmlns="http://www.w3.org/2000/svg" xmlns:xlink="http://www.w3.org/1999/xlink" xmlns:svgjs="http://svgjs.com/svgjs" viewBox="1535 69 224 352"><svg width="154" height="352" xmlns="http://www.w3.org/2000/svg" xmlns:xlink="http://www.w3.org/1999/xlink" xmlns:svgjs="http://svgjs.com/svgjs" viewBox="1605 69 154 352" x="1605" y="69"><svg width="154" height="352" xmlns="http://www.w3.org/2000/svg" xmlns:xlink="http://www.w3.org/1999/xlink" xmlns:svgjs="http://svgjs.com/svgjs" viewBox="0.475 0 153.049 352" fill="#f7ddd8" x="1605" y="69"><svg xmlns="http://www.w3.org/2000/svg" xmlns:xlink="http://www.w3.org/1999/xlink" width="154" height="352" viewBox="0.734 0 152.615 351"><path paint-order="stroke fill markers" fill-rule="evenodd" d="M7.91 351a7.183 7.183 0 0 1-5.906-11.26c6.035-8.745 19.71-15.972 37.026-25.121 42.438-22.421 100.56-53.132 99.95-126.94-.355-43.114-30.766-69.418-62.962-97.266C49.299 67.305 21.672 43.41 12.64 9.005A7.183 7.183 0 0 1 26.534 5.36c7.9 30.097 32.663 51.516 58.88 74.192 33.195 28.711 67.52 58.4 67.93 108.008.682 82.543-64.483 116.974-107.604 139.76-14.337 7.575-27.878 14.729-31.911 20.577A7.173 7.173 0 0 1 7.91 351z"/></svg></svg></svg><svg width="34" height="36" xmlns="http://www.w3.org/2000/svg" xmlns:xlink="http://www.w3.org/1999/xlink" xmlns:svgjs="http://svgjs.com/svgjs" viewBox="1691 279 34 36" x="1691" y="279"><svg width="34" height="36" xmlns="http://www.w3.org/2000/svg" xmlns:xlink="http://www.w3.org/1999/xlink" xmlns:svgjs="http://svgjs.com/svgjs" viewBox="0.12 0 33.76 36" fill="#e5b1b5" x="1691" y="279"><svg xmlns="http://www.w3.org/2000/svg" xmlns:xlink="http://www.w3.org/1999/xlink" width="34" height="36" viewBox="0.907 0.449 33.002 35.191"><path paint-order="stroke fill markers" fill-rule="evenodd" d="M16.807 35.392a3.775 3.775 0 0 1-1.556-1.107 3.783 3.783 0 0 1-.916-3.867c-.532-1.197-2.822-4.629-9.248-9.403-3.125-2.323-4.64-5.777-4.056-9.24.56-3.31 2.943-6.006 6.227-7.037 1.704-.534 5.71-1.183 10.553 2.095 3.163-3.916 7.172-7.43 11.298-6.097 1.837.602 4.922 2.635 4.797 9.59-.159 8.845-5.365 22.515-14.726 25.17a3.75 3.75 0 0 1-2.373-.104zm-4.954-23.225c-.967-.369-1.764-.402-2.33-.223-.568.18-.959.586-1.045 1.089-.104.624.292 1.307 1.116 1.917 2.695 2.005 8.23 6.45 10.897 10.978 1.411-1.53 2.725-3.708 3.785-6.345 1.789-4.448 2.223-8.597 2.042-10.788-.97.824-2.54 2.456-4.762 5.657a3.772 3.772 0 0 1-5.798.493c-1.465-1.492-2.796-2.355-3.905-2.778z"/></svg></svg></svg><svg width="131" height="70" xmlns="http://www.w3.org/2000/svg" xmlns:xlink="http://www.w3.org/1999/xlink" xmlns:svgjs="http://svgjs.com/svgjs" viewBox="1550 163 131 70" x="1550" y="163"><svg width="47" height="70" xmlns="http://www.w3.org/2000/svg" xmlns:xlink="http://www.w3.org/1999/xlink" xmlns:svgjs="http://svgjs.com/svgjs" viewBox="0 0.097 47 69.807" fill="#f7ddd8" x="1550" y="163"><svg xmlns="http://www.w3.org/2000/svg" xmlns:xlink="http://www.w3.org/1999/xlink" width="47" height="70" viewBox="0.094 0.396 46.344 68.832"><path paint-order="stroke fill markers" fill-rule="evenodd" d="M12.637 43.921v18.223c0 2.374-.522 4.15-1.562 5.325-1.041 1.171-2.605 1.76-4.688 1.76-2.083 0-3.652-.593-4.708-1.783C.623 66.258.094 64.491.094 62.144V8.317c0-2.404.529-4.21 1.585-5.413C2.735 1.7 4.333 1.099 6.476 1.099c1.877 0 3.294.478 4.248 1.43.953.954 1.503 2.443 1.65 4.469l.176 1.583c1.377-2.611 3.292-4.628 5.743-6.051 2.45-1.422 5.215-2.134 8.296-2.134 5.898 0 10.68 2.325 14.347 6.976 3.667 4.65 5.502 10.76 5.502 18.33 0 7.658-1.835 13.871-5.502 18.638-3.667 4.77-8.391 7.152-14.172 7.152-3.051 0-5.772-.645-8.162-1.936-2.392-1.29-4.38-3.17-5.965-5.635zM23.067 11.4c-3.345 0-5.919 1.232-7.723 3.697-1.805 2.464-2.707 6-2.707 10.606 0 4.753.924 8.392 2.774 10.914 1.846 2.524 4.488 3.786 7.921 3.786 3.228 0 5.765-1.262 7.614-3.786 1.848-2.522 2.773-5.984 2.773-10.386 0-4.812-.91-8.486-2.728-11.024-1.822-2.538-4.46-3.807-7.924-3.807z"/></svg></svg><svg width="49" height="52" xmlns="http://www.w3.org/2000/svg" xmlns:xlink="http://www.w3.org/1999/xlink" xmlns:svgjs="http://svgjs.com/svgjs" viewBox="0 0.143 49 51.714" fill="#f7ddd8" x="1598" y="163"><svg xmlns="http://www.w3.org/2000/svg" xmlns:xlink="http://www.w3.org/1999/xlink" width="49" height="52" viewBox="0.226 0.307 48.499 51.185"><path paint-order="stroke fill markers" fill-rule="evenodd" d="M24.476.307c7.51 0 13.43 2.275 17.759 6.822 4.326 4.549 6.49 10.797 6.49 18.748 0 7.982-2.164 14.245-6.49 18.794-4.328 4.548-10.249 6.82-17.759 6.82-7.542 0-13.467-2.272-17.78-6.82C2.38 40.122.226 33.86.226 25.877c0-7.951 2.155-14.199 6.47-18.748C11.009 2.582 16.934.307 24.476.307zm0 10.783c-3.61 0-6.39 1.285-8.34 3.851-1.953 2.567-2.927 6.214-2.927 10.936 0 4.755.974 8.421 2.926 11.003 1.951 2.583 4.732 3.874 8.341 3.874 3.55 0 6.3-1.291 8.252-3.874 1.95-2.582 2.925-6.248 2.925-11.003 0-4.722-.975-8.369-2.925-10.936-1.951-2.566-4.702-3.85-8.252-3.85z"/></svg></svg><svg width="31" height="50" xmlns="http://www.w3.org/2000/svg" xmlns:xlink="http://www.w3.org/1999/xlink" xmlns:svgjs="http://svgjs.com/svgjs" viewBox="0.535 0 29.93 50" fill="#f7ddd8" x="1650" y="164"><svg xmlns="http://www.w3.org/2000/svg" xmlns:xlink="http://www.w3.org/1999/xlink" width="31" height="50" viewBox="0.933 0.099 29.664 49.557"><path paint-order="stroke fill markers" fill-rule="evenodd" d="M12.816 10.001c1.29-3.109 2.906-5.537 4.842-7.283 1.936-1.746 3.99-2.62 6.161-2.62 2.113 0 3.77.588 4.973 1.763 1.203 1.173 1.805 2.787 1.805 4.84 0 1.028-.169 1.936-.507 2.73-.337.792-.858 1.495-1.56 2.11-.824.705-2.291 1.101-4.402 1.19-1.233.058-2.173.148-2.818.264-2.494.469-4.379 1.591-5.656 3.366-1.274 1.777-1.915 4.174-1.915 7.196v19.014c0 2.347-.534 4.115-1.605 5.303-1.072 1.19-2.678 1.782-4.82 1.782-2.112 0-3.702-.593-4.774-1.782C1.468 46.686.933 44.918.933 42.57V7.317c0-2.404.52-4.21 1.562-5.413C3.537.7 5.085.099 7.138.099c1.79 0 3.184.5 4.182 1.498.996.996 1.496 2.39 1.496 4.18V10z"/></svg></svg></svg><svg width="140" height="52" xmlns="http://www.w3.org/2000/svg" xmlns:xlink="http://www.w3.org/1999/xlink" xmlns:svgjs="http://svgjs.com/svgjs" viewBox="1573 222 140 52" x="1573" y="222"><svg width="44" height="51" xmlns="http://www.w3.org/2000/svg" xmlns:xlink="http://www.w3.org/1999/xlink" xmlns:svgjs="http://svgjs.com/svgjs" viewBox="0.179 0 43.642 51" fill="#f7ddd8" x="1573" y="223"><svg xmlns="http://www.w3.org/2000/svg" xmlns:xlink="http://www.w3.org/1999/xlink" width="44" height="51" viewBox="0.486 0.152 42.822 50.042"><path paint-order="stroke fill markers" fill-rule="evenodd" d="M30.5 7.37c0-2.405.536-4.21 1.608-5.414C33.178.754 34.769.152 36.883.152c2.113 0 3.711.602 4.797 1.804 1.085 1.205 1.628 3.01 1.628 5.414v35.253c0 2.405-.528 4.188-1.584 5.347-1.056 1.159-2.67 1.738-4.841 1.738-1.848 0-3.25-.468-4.202-1.408-.956-.94-1.506-2.42-1.65-4.444l-.178-1.628c-1.556 2.611-3.572 4.59-6.052 5.94-2.479 1.349-5.33 2.026-8.56 2.026-5.252 0-9.19-1.38-11.817-4.138C1.8 43.298.486 39.176.486 33.689V7.37c0-2.405.536-4.21 1.606-5.414C3.162.754 4.755.152 6.867.152c2.113 0 3.711.602 4.797 1.804 1.086 1.205 1.63 3.01 1.63 5.414v22.622c0 3.404.57 5.831 1.715 7.284 1.144 1.453 3.037 2.179 5.678 2.179 3.022 0 5.412-.896 7.174-2.686 1.76-1.788 2.64-4.224 2.64-7.306V7.37z"/></svg></svg><svg width="44" height="51" xmlns="http://www.w3.org/2000/svg" xmlns:xlink="http://www.w3.org/1999/xlink" xmlns:svgjs="http://svgjs.com/svgjs" viewBox="0.311 0 43.378 51" fill="#f7ddd8" x="1622" y="222"><svg xmlns="http://www.w3.org/2000/svg" xmlns:xlink="http://www.w3.org/1999/xlink" width="44" height="51" viewBox="0.979 0.36 42.823 50.348"><path paint-order="stroke fill markers" fill-rule="evenodd" d="M13.787 43.623c0 2.348-.535 4.115-1.606 5.303-1.072 1.19-2.678 1.782-4.819 1.782-2.114 0-3.704-.593-4.775-1.782C1.515 47.738.98 45.971.98 43.623V8.37c0-2.405.53-4.21 1.587-5.414C3.62 1.754 5.219 1.152 7.362 1.152c1.877 0 3.294.477 4.247 1.43.953.955 1.503 2.442 1.65 4.468l.177 1.584c1.584-2.669 3.63-4.716 6.139-6.139C22.084 1.071 24.892.36 28.003.36c5.193 0 9.124 1.423 11.794 4.269 2.671 2.847 4.006 7.071 4.006 12.676v26.318c0 2.348-.535 4.115-1.606 5.303-1.072 1.19-2.678 1.782-4.82 1.782-2.112 0-3.704-.593-4.774-1.782-1.072-1.188-1.608-2.955-1.608-5.303V21.001c0-3.432-.58-5.882-1.737-7.348-1.16-1.47-3.045-2.201-5.655-2.201-3.023 0-5.414.9-7.175 2.706-1.76 1.805-2.64 4.262-2.64 7.37v22.095z"/></svg></svg><svg width="44" height="52" xmlns="http://www.w3.org/2000/svg" xmlns:xlink="http://www.w3.org/1999/xlink" xmlns:svgjs="http://svgjs.com/svgjs" viewBox="0.487 0 43.025 52" fill="#f7ddd8" x="1669" y="222"><svg xmlns="http://www.w3.org/2000/svg" xmlns:xlink="http://www.w3.org/1999/xlink" width="44" height="52" viewBox="0.793 0.36 42.424 51.274"><path paint-order="stroke fill markers" fill-rule="evenodd" d="M42.778 13.872V41.07c0 .969.075 2.084.22 3.345.148 1.262.22 2.04.22 2.333 0 1.526-.485 2.72-1.45 3.587-.97.864-2.32 1.3-4.052 1.3-2.376 0-4.13-.618-5.26-1.85-1.126-1.233-1.706-3.17-1.736-5.81-1.613 2.494-3.728 4.393-6.337 5.7-2.613 1.305-5.65 1.96-9.111 1.96-4.575 0-8.137-1.307-10.673-3.92C2.061 45.106.793 41.454.793 36.759c0-4.401 1.071-7.77 3.212-10.101 2.142-2.333 5.78-4.04 10.914-5.128 1.966-.41 4.468-.8 7.505-1.165 3.036-.366 5.01-.698 5.917-.991a2.579 2.579 0 0 0 1.498-1.277c.323-.615.483-1.392.483-2.332 0-1.938-.601-3.323-1.803-4.16-1.204-.834-3.215-1.252-6.029-1.252-1.468 0-2.81.204-4.03.615a9.883 9.883 0 0 0-3.233 1.805c-.323.293-.807.791-1.453 1.496-2.023 2.2-3.914 3.3-5.676 3.3-1.468 0-2.692-.505-3.676-1.518-.982-1.012-1.473-2.25-1.473-3.719 0-3.197 1.84-5.992 5.524-8.384C12.153 1.557 16.68.36 22.049.36c6.69 0 11.816 1.16 15.38 3.478 3.566 2.317 5.35 5.662 5.35 10.034zM30.5 26.37c-2.114.998-4.527 1.782-7.24 2.354-2.714.572-4.114.874-4.204.901-2.231.648-3.792 1.454-4.687 2.423-.897.968-1.343 2.302-1.343 4.005 0 1.819.588 3.233 1.763 4.246 1.17 1.013 2.814 1.519 4.928 1.519 3.256 0 5.866-.99 7.832-2.972 1.967-1.98 2.951-4.628 2.951-7.943V26.37z"/></svg></svg></svg><svg width="15" height="68" xmlns="http://www.w3.org/2000/svg" xmlns:xlink="http://www.w3.org/1999/xlink" xmlns:svgjs="http://svgjs.com/svgjs" viewBox="0.592 0 13.816 68" fill="#f7ddd8" x="1581" y="277"><svg xmlns="http://www.w3.org/2000/svg" xmlns:xlink="http://www.w3.org/1999/xlink" width="15" height="68" viewBox="0.654 0.578 13.511 66.5"><path paint-order="stroke fill markers" fill-rule="evenodd" d="M.654 7.355c0-1.848.665-3.439 2-4.775C3.992 1.245 5.583.578 7.43.578c1.876 0 3.467.652 4.776 1.957 1.304 1.306 1.959 2.912 1.959 4.82 0 1.849-.662 3.432-1.981 4.753-1.32 1.32-2.907 1.98-4.754 1.98-1.818 0-3.406-.675-4.755-2.024-1.35-1.35-2.022-2.92-2.022-4.71zm13.159 52.637c0 2.348-.536 4.115-1.606 5.303-1.07 1.19-2.665 1.783-4.776 1.783-2.142 0-3.748-.594-4.818-1.783-1.074-1.188-1.61-2.955-1.61-5.303V24.74c0-2.405.536-4.209 1.61-5.413 1.07-1.203 2.676-1.805 4.818-1.805 2.111 0 3.705.602 4.776 1.805 1.07 1.204 1.606 3.008 1.606 5.413v35.253z"/></svg></svg><svg width="47" height="68" xmlns="http://www.w3.org/2000/svg" xmlns:xlink="http://www.w3.org/1999/xlink" xmlns:svgjs="http://svgjs.com/svgjs" viewBox="0.121 0 46.757 68" fill="#f7ddd8" x="1599" y="277"><svg xmlns="http://www.w3.org/2000/svg" xmlns:xlink="http://www.w3.org/1999/xlink" width="47" height="68" viewBox="0.414 0.578 46.301 67.336"><path paint-order="stroke fill markers" fill-rule="evenodd" d="M34.304 7.707c0-2.377.513-4.159 1.542-5.347 1.025-1.19 2.58-1.782 4.666-1.782 2.081 0 3.634.593 4.664 1.782 1.026 1.188 1.539 2.97 1.539 5.347v52.285c0 2.376-.528 4.153-1.583 5.326-1.056 1.172-2.658 1.76-4.8 1.76-1.906 0-3.345-.492-4.311-1.475-.966-.983-1.454-2.441-1.454-4.379v-1.408c-1.907 2.818-4.004 4.871-6.293 6.161-2.289 1.292-4.973 1.937-8.054 1.937-5.896 0-10.672-2.333-14.327-6.998C2.243 56.25.414 50.133.414 42.563c0-7.627 1.83-13.826 5.48-18.593 3.654-4.77 8.37-7.152 14.15-7.152 3.052 0 5.78.638 8.185 1.914 2.406 1.276 4.431 3.161 6.075 5.656V7.708zm-10.74 20.2c-3.196 0-5.72 1.256-7.568 3.765-1.847 2.507-2.772 5.962-2.772 10.363 0 4.814.888 8.496 2.661 11.047 1.777 2.552 4.335 3.829 7.68 3.829 3.52 0 6.192-1.254 8.01-3.763 1.818-2.508 2.729-6.211 2.729-11.113 0-4.518-.937-8.001-2.818-10.453-1.877-2.449-4.517-3.674-7.921-3.674z"/></svg></svg><svg width="43" height="53" xmlns="http://www.w3.org/2000/svg" xmlns:xlink="http://www.w3.org/1999/xlink" xmlns:svgjs="http://svgjs.com/svgjs" viewBox="0 0.516 43 51.967" fill="#f7ddd8" x="1650" y="293"><svg xmlns="http://www.w3.org/2000/svg" xmlns:xlink="http://www.w3.org/1999/xlink" width="43" height="53" viewBox="0.187 0.728 42.427 51.275"><path paint-order="stroke fill markers" fill-rule="evenodd" d="M42.172 14.24V41.44c0 .968.074 2.084.223 3.345.145 1.262.22 2.04.22 2.333 0 1.526-.484 2.721-1.454 3.586-.966.865-2.32 1.3-4.048 1.3-2.38 0-4.13-.617-5.26-1.849-1.13-1.233-1.71-3.17-1.74-5.81-1.613 2.494-3.724 4.393-6.337 5.7-2.61 1.304-5.646 1.96-9.111 1.96-4.576 0-8.133-1.308-10.671-3.92-2.54-2.61-3.807-6.262-3.807-10.957 0-4.4 1.07-7.769 3.21-10.101 2.142-2.333 5.781-4.04 10.92-5.128 1.962-.411 4.463-.8 7.5-1.165 3.037-.367 5.01-.698 5.921-.99.673-.236 1.175-.661 1.494-1.278.324-.615.487-1.392.487-2.332 0-1.937-.601-3.323-1.806-4.16-1.2-.834-3.212-1.253-6.03-1.253-1.467 0-2.81.205-4.025.616a9.784 9.784 0 0 0-3.234 1.805c-.323.293-.81.791-1.453 1.496-2.026 2.2-3.919 3.3-5.676 3.3-1.469 0-2.695-.505-3.677-1.518-.985-1.011-1.475-2.25-1.475-3.72 0-3.196 1.84-5.992 5.523-8.383C11.55 1.926 16.074.728 21.445.728c6.687 0 11.817 1.16 15.381 3.479 3.565 2.317 5.346 5.662 5.346 10.034zm-12.278 12.5c-2.111.998-4.527 1.782-7.241 2.355-2.713.572-4.115.873-4.2.9-2.23.647-3.796 1.454-4.687 2.423-.897.968-1.342 2.303-1.342 4.004 0 1.82.583 3.235 1.758 4.247 1.174 1.013 2.818 1.519 4.929 1.519 3.256 0 5.869-.99 7.836-2.973 1.966-1.978 2.947-4.627 2.947-7.943V26.74z"/></svg></svg><svg width="44" height="52" xmlns="http://www.w3.org/2000/svg" xmlns:xlink="http://www.w3.org/1999/xlink" xmlns:svgjs="http://svgjs.com/svgjs" viewBox="1535 293 44 52" x="1535" y="293"><svg width="44" height="52" xmlns="http://www.w3.org/2000/svg" xmlns:xlink="http://www.w3.org/1999/xlink" xmlns:svgjs="http://svgjs.com/svgjs" viewBox="0 0.337 44 51.326" fill="#f7ddd8" x="1535" y="293"><svg xmlns="http://www.w3.org/2000/svg" width="44" height="52" viewBox="0.185 0.135 43.648 50.916"><path paint-order="stroke fill markers" fill-rule="evenodd" d="M.861 10.065a9.016 9.016 0 0 1-.519-1.76A9.375 9.375 0 0 1 .185 6.59c0-1.807.63-3.318 1.895-4.537C3.343.835 4.908.225 6.774.225c1.715 0 3.09.468 4.13 1.4 1.037.932 1.874 2.465 2.506 4.603l8.71 30.152 8.85-30.423c.57-1.957 1.382-3.416 2.436-4.38C34.459.616 35.782.136 37.377.136c1.987 0 3.559.519 4.718 1.557 1.156 1.038 1.738 2.46 1.738 4.265a9.23 9.23 0 0 1-.181 1.671c-.122.63-.302 1.309-.542 2.03L30.698 44.235c-1.085 2.948-2.16 4.823-3.228 5.618-1.07.797-3.349 1.198-6.838 1.198-2.047 0-3.56-.392-4.536-1.175-.98-.782-1.994-2.662-3.047-5.641L.86 10.065z"/></svg></svg></svg></svg>